# xmcd
# Copyright (C) 1995-1998 Ti Kan
#
# Track frame offsets:
#       150
#       13525
#       30170
#       48070
#       59805
#       75497
#       92247
#       104467
#       121920
#       136420
#       156034
#       171259
#
# Disc length: 2504 seconds
#
# Revision: 0
# Processed by: cddbd v1.4b42PL1 Copyright (c) Steve Scherf et al.
# Submitted via: CD-Transfer v1.0
#
DISCID=8f09c60c
DTITLE=Paolo Negri - Evelyn
DYEAR=1997
DGENRE=
TTITLE0=S Isch Alles Relativ
TTITLE1=Evelyn
TTITLE2=Schiff Im Sturm
TTITLE3=Anderi Ouge
TTITLE4=Bärn Song
TTITLE5=Wolkeflug
TTITLE6=Färnweh
TTITLE7=Chatz Und Muus
TTITLE8=Bluemechranz
TTITLE9=Ohni Di
TTITLE10=Krokofanteneledil
TTITLE11=Schwiizerlied
EXTD=
EXTT0=
EXTT1=
EXTT2=
EXTT3=
EXTT4=
EXTT5=
EXTT6=
EXTT7=
EXTT8=
EXTT9=
EXTT10=
EXTT11=
PLAYORDER=
